<?xml version="1.0" encoding="UTF-8" standalone="no"?>
<svg width="100%" height="100%" viewBox="0 0 1250 1250" version="1.1" xmlns="http://www.w3.org/2000/svg"
     xml:space="preserve"
     style="fill-rule:evenodd;clip-rule:evenodd;stroke-linejoin:round;stroke-miterlimit:2;">
    <path d="M575.256,1115.11c-50.048,0 -93.892,-6.205 -131.53,-18.615c-37.639,-12.411 -68.055,-26.754 -91.248,-43.03l-34.79,44.555l-48.828,0l59.814,-296.63l49.439,0c2.034,35.4 6.815,68.562 14.343,99.487c7.528,30.924 19.836,58.797 36.926,83.618c17.09,25.635 39.266,45.471 66.529,59.509c27.262,14.038 61.035,21.057 101.318,21.057c60.628,0 109.253,-16.784 145.874,-50.354c36.621,-33.569 54.932,-79.447 54.932,-137.634c0,-31.331 -7.731,-59.204 -23.194,-83.618c-15.462,-24.414 -38.655,-43.335 -69.58,-56.763c-29.297,-12.614 -58.288,-23.905 -86.975,-33.874c-28.686,-9.969 -56.864,-21.668 -84.534,-35.095c-36.621,-17.497 -66.121,-42.623 -88.501,-75.379c-22.379,-32.755 -33.569,-69.682 -33.569,-110.779c0,-39.062 8.647,-75.073 25.94,-108.032c17.293,-32.959 40.182,-61.442 68.665,-85.449c27.669,-23.193 61.137,-41.707 100.402,-55.542c39.266,-13.835 78.227,-20.752 116.883,-20.752c36.214,0 70.495,4.272 102.844,12.817c32.349,8.545 64.799,24.618 97.351,48.218l33.569,-41.504l48.829,0l-61.646,287.476l-49.438,0c-1.221,-31.332 -4.375,-63.68 -9.461,-97.046c-5.086,-33.366 -13.733,-61.035 -25.94,-83.008c-13.428,-24.007 -32.145,-42.826 -56.152,-56.457c-24.007,-13.632 -55.949,-20.447 -95.825,-20.447c-48.015,0 -88.298,16.581 -120.85,49.743c-32.552,33.163 -48.828,72.531 -48.828,118.104c0,30.11 6.002,55.643 18.005,76.599c12.004,20.955 30.62,37.943 55.847,50.964c26.856,13.835 55.034,25.736 84.534,35.706c29.5,9.969 55.847,20.446 79.041,31.433c46.793,21.972 83.313,48.421 109.558,79.345c26.245,30.925 39.367,68.767 39.367,113.526c0,43.131 -9.358,83.414 -28.076,120.849c-18.717,37.435 -43.742,68.767 -75.073,93.994c-32.959,26.856 -69.885,47.404 -110.779,61.646c-40.893,14.242 -85.958,21.362 -135.193,21.362Z"
          style="fill-rule:nonzero;"/>
</svg>
