<?xml version="1.0" encoding="UTF-8" standalone="no"?>
<svg xmlns="http://www.w3.org/2000/svg" fill="#1a202c" viewBox="0 0 1334 350">
    <title>Superbly</title>
    <g id="name">
        <path d="M76.086,278.186c-9.009,0 -16.901,-1.117 -23.676,-3.351c-6.775,-2.234 -12.25,-4.815 -16.424,-7.745l-6.263,8.02l-8.789,0l10.767,-53.394l8.899,0c0.366,6.372 1.227,12.342 2.582,17.908c1.355,5.566 3.57,10.584 6.646,15.051c3.076,4.615 7.068,8.185 11.975,10.712c4.908,2.527 10.987,3.79 18.238,3.79c10.913,0 19.665,-3.021 26.257,-9.063c6.592,-6.043 9.888,-14.301 9.888,-24.775c0,-5.639 -1.392,-10.656 -4.175,-15.051c-2.783,-4.394 -6.958,-7.8 -12.525,-10.217c-5.273,-2.271 -10.491,-4.303 -15.655,-6.098c-5.164,-1.794 -10.236,-3.9 -15.216,-6.317c-6.592,-3.149 -11.902,-7.672 -15.93,-13.568c-4.029,-5.896 -6.043,-12.543 -6.043,-19.94c0,-7.031 1.557,-13.513 4.669,-19.446c3.113,-5.932 7.233,-11.059 12.36,-15.381c4.981,-4.175 11.005,-7.507 18.073,-9.997c7.067,-2.491 14.08,-3.736 21.038,-3.736c6.519,0 12.69,0.769 18.512,2.308c5.823,1.538 11.664,4.431 17.524,8.679l6.042,-7.471l8.789,0l-11.096,51.746l-8.899,0c-0.22,-5.64 -0.787,-11.463 -1.703,-17.469c-0.915,-6.006 -2.472,-10.986 -4.669,-14.941c-2.417,-4.321 -5.786,-7.709 -10.108,-10.162c-4.321,-2.454 -10.07,-3.681 -17.248,-3.681c-8.643,0 -15.894,2.985 -21.753,8.954c-5.859,5.969 -8.789,13.055 -8.789,21.259c0,5.419 1.08,10.015 3.241,13.787c2.161,3.772 5.511,6.83 10.052,9.174c4.834,2.49 9.906,4.633 15.216,6.427c5.311,1.794 10.053,3.68 14.228,5.658c8.423,3.955 14.996,8.716 19.72,14.282c4.724,5.567 7.086,12.378 7.086,20.435c0,7.763 -1.684,15.014 -5.053,21.753c-3.369,6.738 -7.874,12.378 -13.513,16.919c-5.933,4.834 -12.58,8.532 -19.941,11.096c-7.361,2.563 -15.472,3.845 -24.334,3.845Z"/>
        <path d="M248.329,259.619l-0.659,0c-3.369,2.71 -6.592,5.2 -9.668,7.471c-3.076,2.27 -6.116,4.175 -9.119,5.713c-3.515,1.758 -6.701,3.021 -9.558,3.79c-2.856,0.769 -6.591,1.154 -11.206,1.154c-7.031,0 -12.487,-2.033 -16.369,-6.098c-3.882,-4.065 -5.823,-9.393 -5.823,-15.985c0,-1.758 0.146,-3.845 0.439,-6.262c0.293,-2.417 0.989,-6.006 2.088,-10.767l8.569,-34.826c0.733,-3.223 1.337,-6.08 1.813,-8.57c0.476,-2.49 0.714,-4.87 0.714,-7.141c0,-4.101 -0.678,-6.83 -2.033,-8.185c-1.354,-1.355 -4.119,-2.032 -8.294,-2.032c-1.612,0 -3.662,0.293 -6.153,0.879c-2.49,0.586 -4.431,1.062 -5.822,1.428l1.648,-7.031c5.713,-2.564 10.748,-4.505 15.106,-5.823c4.358,-1.318 7.855,-1.978 10.492,-1.978c5.859,0 10.162,1.374 12.909,4.12c2.746,2.747 4.12,6.647 4.12,11.701c0,1.318 -0.147,3.113 -0.44,5.383c-0.293,2.271 -0.732,4.541 -1.318,6.812l-9.778,40.649c-0.732,3.076 -1.337,5.951 -1.813,8.624c-0.476,2.674 -0.714,4.706 -0.714,6.098c0,4.907 1.062,8.789 3.186,11.645c2.124,2.857 5.493,4.285 10.108,4.285c4.687,0 9.503,-1.227 14.447,-3.681c4.943,-2.453 9.906,-6.17 14.886,-11.151l19.226,-82.727l19.116,-1.318l1.319,1.648l-16.37,70.752c-0.732,3.003 -1.392,6.024 -1.977,9.064c-0.586,3.039 -0.879,5.181 -0.879,6.427c0,4.174 0.897,7.012 2.691,8.514c1.795,1.501 4.779,2.252 8.954,2.252c1.392,0 3.369,-0.22 5.933,-0.659c2.563,-0.44 4.541,-0.916 5.932,-1.428l-1.648,7.031c-6.079,2.49 -11.151,4.358 -15.216,5.603c-4.065,1.245 -7.818,1.868 -11.261,1.868c-5.932,0 -10.345,-1.722 -13.238,-5.164c-2.893,-3.442 -4.34,-7.471 -4.34,-12.085Z"/>
        <path d="M396.842,209.192c0,7.983 -2.838,14.813 -8.514,20.489c-5.676,5.677 -12.506,8.515 -20.489,8.515c-7.984,0 -14.814,-2.838 -20.49,-8.515c-5.676,-5.676 -8.514,-12.506 -8.514,-20.489c0,-7.984 2.838,-14.813 8.514,-20.49c5.676,-5.676 12.506,-8.514 20.49,-8.514c7.983,0 14.813,2.838 20.489,8.514c5.676,5.677 8.514,12.506 8.514,20.49Z"/>
        <path d="M555.793,206.116c0,9.814 -1.722,19.116 -5.164,27.905c-3.442,8.789 -8.02,16.406 -13.733,22.852c-6.372,7.104 -13.275,12.377 -20.709,15.82c-7.434,3.442 -15.07,5.163 -22.907,5.163c-6.298,0 -11.462,-0.769 -15.49,-2.307c-4.029,-1.538 -7.617,-3.442 -10.767,-5.713l-6.372,28.785c-0.439,1.831 -0.787,3.552 -1.044,5.163c-0.256,1.612 -0.384,2.893 -0.384,3.845c0,1.978 0.714,3.553 2.142,4.725c1.428,1.171 3.058,2.014 4.889,2.526c1.831,0.586 3.882,1.026 6.152,1.319c2.271,0.293 4.322,0.512 6.153,0.659l-1.538,6.921l-60.535,0l1.538,-6.921c2.344,-0.147 4.541,-0.33 6.592,-0.549c2.051,-0.22 3.992,-0.586 5.823,-1.099c2.27,-0.659 4.083,-1.886 5.438,-3.68c1.355,-1.795 2.325,-4.01 2.911,-6.647l22.962,-101.074c0.586,-2.784 1.135,-5.585 1.648,-8.405c0.512,-2.82 0.769,-5.255 0.769,-7.306c0,-4.101 -0.641,-6.848 -1.923,-8.24c-1.282,-1.391 -4.047,-2.087 -8.295,-2.087c-1.611,0 -3.662,0.311 -6.152,0.934c-2.49,0.622 -4.431,1.117 -5.823,1.483l1.648,-7.031c5.567,-2.49 10.584,-4.413 15.052,-5.768c4.467,-1.355 8.276,-2.033 11.425,-2.033c5.127,0 9.009,1.3 11.646,3.901c2.637,2.6 4.284,6.207 4.944,10.821l0.879,0c4.98,-4.614 10.308,-8.423 15.985,-11.426c5.676,-3.003 11.334,-4.504 16.974,-4.504c11.132,0 19.793,3.79 25.982,11.371c6.189,7.58 9.284,17.779 9.284,30.597Zm-34.278,45.373c3.736,-6.006 6.61,-12.835 8.625,-20.489c2.014,-7.654 3.021,-15.766 3.021,-24.335c0,-3.882 -0.348,-7.782 -1.044,-11.7c-0.696,-3.919 -1.813,-7.16 -3.351,-9.723c-1.611,-2.857 -3.808,-5.072 -6.592,-6.647c-2.783,-1.575 -6.445,-2.362 -10.986,-2.362c-3.369,0 -7.086,1.025 -11.151,3.076c-4.065,2.051 -9.027,5.896 -14.886,11.536l-14.063,62.292c0.513,4.175 2.765,8.075 6.757,11.701c3.991,3.625 8.807,5.438 14.447,5.438c5.786,0 11.206,-1.685 16.259,-5.054c5.054,-3.369 9.375,-7.947 12.964,-13.733Z"/>
        <path d="M687.716,187c0,7.763 -2.435,14.428 -7.305,19.995c-4.871,5.566 -11.957,9.997 -21.259,13.293c-6.812,2.49 -13.696,4.504 -20.654,6.043c-6.958,1.538 -14.649,2.819 -23.072,3.845c0,11.572 2.143,20.416 6.427,26.532c4.285,6.115 10.566,9.173 18.842,9.173c7.324,0 13.788,-1.831 19.391,-5.493c5.603,-3.662 11.114,-9.118 16.534,-16.369l6.262,4.614c-5.859,8.935 -13.183,16.076 -21.972,21.423c-8.789,5.347 -17.908,8.02 -27.356,8.02c-12.964,0 -22.87,-3.625 -29.718,-10.876c-6.848,-7.251 -10.272,-17.542 -10.272,-30.872c0,-9.228 1.446,-18.036 4.339,-26.422c2.893,-8.386 7.123,-16.058 12.689,-23.016c5.42,-6.812 12.067,-12.305 19.941,-16.48c7.873,-4.175 16.571,-6.262 26.092,-6.262c10.547,0 18.366,2.142 23.456,6.427c5.09,4.285 7.635,9.759 7.635,16.425Zm-20.214,-2.747c0,-2.857 -0.403,-5.109 -1.209,-6.757c-0.806,-1.648 -1.831,-2.874 -3.076,-3.68c-1.318,-0.879 -2.71,-1.428 -4.175,-1.648c-1.465,-0.22 -2.966,-0.33 -4.504,-0.33c-8.789,0 -16.901,4.834 -24.335,14.502c-7.434,9.668 -12.14,21.717 -14.117,36.145c5.127,-0.732 10.913,-1.776 17.358,-3.131c6.445,-1.355 11.792,-3.131 16.04,-5.328c6.079,-3.15 10.602,-7.196 13.568,-12.14c2.966,-4.944 4.45,-10.822 4.45,-17.633Z"/>
        <path d="M819.421,182.056c0,2.05 -0.293,4.303 -0.879,6.756c-0.586,2.454 -1.429,4.486 -2.527,6.098c-1.319,1.977 -2.765,3.497 -4.34,4.559c-1.574,1.062 -3.827,1.593 -6.756,1.593c-3.955,0 -6.922,-0.989 -8.899,-2.966c-1.978,-1.978 -2.967,-4.175 -2.967,-6.592c0,-2.271 0.55,-4.816 1.648,-7.636c1.099,-2.819 2.234,-5.621 3.406,-8.404c-0.879,0 -2.325,0.238 -4.34,0.714c-2.014,0.476 -4.449,1.41 -7.305,2.801c-2.857,1.392 -6.098,3.479 -9.723,6.263c-3.626,2.783 -7.489,6.482 -11.591,11.096l-17.688,78.662l-20.434,0l16.04,-71.191c0.366,-1.758 0.897,-4.395 1.593,-7.911c0.695,-3.515 1.043,-6.115 1.043,-7.8c0,-4.101 -0.695,-6.848 -2.087,-8.24c-1.392,-1.391 -4.175,-2.087 -8.35,-2.087c-1.611,0 -3.662,0.275 -6.152,0.824c-2.49,0.549 -4.431,1.007 -5.823,1.373l1.648,-7.031c5.713,-2.563 10.767,-4.468 15.161,-5.713c4.395,-1.245 8.167,-1.868 11.316,-1.868c5.86,0 10.034,1.593 12.525,4.779c2.49,3.187 3.735,7.966 3.735,14.338l0.659,0c8.716,-7.544 15.326,-12.818 19.83,-15.821c4.505,-3.003 9.211,-4.504 14.118,-4.504c2.344,0 4.614,0.293 6.811,0.879c2.198,0.586 4.065,1.575 5.603,2.966c1.612,1.538 2.802,3.314 3.571,5.329c0.769,2.014 1.154,4.925 1.154,8.734Z"/>
        <path d="M957.826,206.116c0,9.741 -1.757,19.061 -5.273,27.96c-3.516,8.899 -8.167,16.571 -13.953,23.016c-5.932,6.592 -12.634,11.774 -20.105,15.546c-7.47,3.772 -15.381,5.658 -23.73,5.658c-6.299,0 -11.847,-0.531 -16.644,-1.593c-4.798,-1.062 -8.881,-2.509 -12.25,-4.34c-3.443,-1.904 -6.299,-4.046 -8.57,-6.427c-2.27,-2.38 -4.321,-5.035 -6.152,-7.965l28.345,-124.365c0.366,-1.685 0.677,-3.131 0.934,-4.34c0.256,-1.208 0.384,-2.435 0.384,-3.68c0,-2.637 -0.439,-4.669 -1.318,-6.097c-0.879,-1.429 -2.124,-2.509 -3.736,-3.241c-1.538,-0.66 -3.479,-1.099 -5.822,-1.319c-2.344,-0.22 -4.724,-0.476 -7.141,-0.769l1.538,-6.702l40.759,-2.526l1.099,1.648l-16.7,73.059l0.44,0c6.592,-5.86 12.396,-9.906 17.413,-12.14c5.017,-2.234 9.906,-3.351 14.667,-3.351c11.133,0 19.885,3.79 26.257,11.371c6.372,7.58 9.558,17.779 9.558,30.597Zm-22.632,0.549c0,-3.882 -0.347,-7.782 -1.043,-11.7c-0.696,-3.919 -1.85,-7.196 -3.461,-9.833c-1.684,-2.783 -3.992,-4.981 -6.921,-6.592c-2.93,-1.611 -6.555,-2.417 -10.877,-2.417c-2.563,0 -4.98,0.439 -7.251,1.318c-2.27,0.879 -4.614,2.051 -7.031,3.516c-2.124,1.318 -4.193,2.911 -6.207,4.779c-2.014,1.868 -3.864,3.534 -5.548,4.999l-14.612,65.149c0.22,1.465 0.879,3.076 1.977,4.834c1.099,1.758 2.491,3.296 4.175,4.614c2.051,1.685 4.358,2.966 6.922,3.845c2.563,0.879 5.383,1.319 8.459,1.319c5.786,0 11.224,-1.703 16.315,-5.109c5.09,-3.406 9.466,-8.002 13.128,-13.788c4.029,-6.299 7.032,-13.33 9.009,-21.094c1.978,-7.763 2.966,-15.71 2.966,-23.84Z"/>
        <path d="M1062.28,209.192c0,7.983 -2.838,14.813 -8.514,20.489c-5.676,5.677 -12.506,8.515 -20.49,8.515c-7.983,0 -14.813,-2.838 -20.489,-8.515c-5.676,-5.676 -8.514,-12.506 -8.514,-20.489c0,-7.984 2.838,-14.813 8.514,-20.49c5.676,-5.676 12.506,-8.514 20.489,-8.514c7.984,0 14.814,2.838 20.49,8.514c5.676,5.677 8.514,12.506 8.514,20.49Z"/>
        <path d="M1164.77,106.58l-30.652,132.275c-0.659,2.783 -1.282,5.566 -1.868,8.35c-0.586,2.783 -0.879,5.053 -0.879,6.811c0,4.175 0.934,7.031 2.802,8.569c1.868,1.539 4.889,2.308 9.064,2.308c1.464,0 3.643,-0.184 6.536,-0.55c2.894,-0.366 5.072,-0.805 6.537,-1.318l-1.648,7.031c-6.591,2.637 -11.663,4.505 -15.216,5.603c-3.552,1.099 -7.562,1.648 -12.03,1.648c-5.859,0 -10.309,-1.52 -13.348,-4.559c-3.04,-3.04 -4.559,-6.793 -4.559,-11.261c0,-1.685 0.164,-3.443 0.494,-5.274c0.33,-1.831 0.787,-4.138 1.373,-6.921l26.697,-115.686c0.513,-2.271 0.861,-3.845 1.044,-4.724c0.183,-0.879 0.274,-1.978 0.274,-3.296c0,-2.637 -0.439,-4.669 -1.318,-6.097c-0.879,-1.429 -2.124,-2.509 -3.735,-3.241c-1.538,-0.66 -3.479,-1.099 -5.823,-1.319c-2.344,-0.22 -4.724,-0.476 -7.141,-0.769l1.538,-6.702l40.759,-2.526l1.099,1.648Z"/>
        <path d="M1264.28,259.07l-0.659,0c-6.738,5.639 -13.147,10.071 -19.226,13.293c-6.079,3.223 -13.001,4.834 -20.764,4.834c-7.032,0 -12.598,-2.032 -16.7,-6.097c-4.101,-4.065 -6.152,-9.393 -6.152,-15.985c0,-1.758 0.146,-3.845 0.439,-6.262c0.293,-2.417 0.989,-6.006 2.088,-10.767l8.569,-34.277c0.806,-3.296 1.428,-6.171 1.868,-8.625c0.439,-2.453 0.659,-4.815 0.659,-7.086c0,-4.101 -0.677,-6.83 -2.032,-8.185c-1.355,-1.355 -4.12,-2.032 -8.295,-2.032c-1.611,0 -3.662,0.293 -6.152,0.879c-2.491,0.586 -4.432,1.062 -5.823,1.428l1.648,-7.031c5.713,-2.564 10.748,-4.505 15.106,-5.823c4.358,-1.318 7.855,-1.978 10.492,-1.978c5.859,0 10.199,1.319 13.019,3.956c2.82,2.636 4.229,6.591 4.229,11.865c0,1.318 -0.146,3.113 -0.439,5.383c-0.293,2.271 -0.732,4.541 -1.318,6.812l-9.998,40.1c-0.732,3.076 -1.355,5.951 -1.868,8.624c-0.512,2.673 -0.769,4.706 -0.769,6.097c0,4.908 1.191,8.789 3.571,11.646c2.38,2.856 5.878,4.285 10.492,4.285c5.347,0 10.565,-1.319 15.655,-3.956c5.091,-2.636 9.87,-6.262 14.338,-10.876l18.237,-82.178l19.006,-1.318l1.319,1.648l-18.897,86.023c-2.783,12.597 -6.335,23.364 -10.657,32.3c-4.321,8.935 -9.375,16.15 -15.161,21.643c-6.079,5.786 -12.634,9.961 -19.665,12.524c-7.032,2.564 -15.052,3.845 -24.06,3.845c-6.226,0 -11.17,-0.439 -14.832,-1.318c-3.662,-0.879 -6.555,-2.087 -8.679,-3.626c-2.124,-1.464 -3.552,-3.112 -4.285,-4.943c-0.732,-1.831 -1.098,-3.663 -1.098,-5.494c0,-3.149 0.952,-5.932 2.856,-8.349c1.904,-2.417 4.651,-3.626 8.24,-3.626c2.71,0 5.017,0.769 6.921,2.307c1.904,1.539 3.442,3.223 4.614,5.054c1.319,1.978 2.527,4.212 3.626,6.702c1.098,2.49 1.977,4.468 2.637,5.932l2.636,0c4.175,0 8.588,-1.025 13.239,-3.076c4.651,-2.05 8.917,-5.237 12.799,-9.558c4.175,-4.687 7.928,-10.73 11.261,-18.127c3.332,-7.398 5.987,-16.26 7.965,-26.587Z"/>
    </g>
</svg>
